<svg xmlns="http://www.w3.org/2000/svg" viewBox="0 0 102.63 110.46"><defs><style>.cls-1{fill:#8e1313;}</style></defs><title>자산 7</title><g id="레이어_2" data-name="레이어 2"><g id="레이어_2-2" data-name="레이어 2"><path class="cls-1" d="M102.63,40.36V34.71A1.94,1.94,0,0,0,99.73,33L57.58,57.24A7.78,7.78,0,0,0,53.69,64v43.31a2.91,2.91,0,0,0,4.36,2.52L99.72,85.86a5.82,5.82,0,0,0,2.91-5V55.15a1.94,1.94,0,0,0-2.9-1.68L80.11,64.75a3.88,3.88,0,0,0-2,3.36v6.63a1.37,1.37,0,0,0,2.06,1.19l11.17-6.42a1,1,0,0,1,1.46.84v7.09a2,2,0,0,1-1,1.68L64.93,94.6a1,1,0,0,1-1.45-.84V69.59a7.75,7.75,0,0,1,3.89-6.72l33.32-19.15A3.87,3.87,0,0,0,102.63,40.36Z"/><path class="cls-1" d="M97.83,30.16a1.94,1.94,0,0,0,0-3.36L52.31.52a3.9,3.9,0,0,0-3.88,0L3.88,26.24A7.77,7.77,0,0,0,0,33V81a3.87,3.87,0,0,0,1.94,3.36l4.35,2.51a2.52,2.52,0,0,0,3.78-2.18V38.77A7.74,7.74,0,0,1,14,32.06L49.4,11.59a2,2,0,0,1,1.94,0L59,16a1,1,0,0,1,0,1.68L24,37.87a7.78,7.78,0,0,0-3.87,6.72v48A3.87,3.87,0,0,0,22.09,96l4.35,2.52a2.52,2.52,0,0,0,3.78-2.19V50.41a7.74,7.74,0,0,1,3.88-6.72L69.55,23.22a2,2,0,0,1,1.93,0l7.65,4.42a1,1,0,0,1,0,1.68l-35,20.19a7.74,7.74,0,0,0-3.88,6.71v48a3.87,3.87,0,0,0,1.94,3.35l4.36,2.52a2.52,2.52,0,0,0,3.78-2.19V62a7.77,7.77,0,0,1,3.88-6.72Z"/></g></g></svg>